<svg xmlns="http://www.w3.org/2000/svg" viewBox="0 0 1661.31 253.74"><title>blockonelogo</title> <g> <polygon points="1610.83 222.81 1620.28 222.81 1620.28 249.54 1621.62 249.54 1621.62 222.81 1631.1 222.81 1631.1 221.55 1610.83 221.55 1610.83 222.81"></polygon> <polygon points="1659.17 221.55 1648.85 246.6 1638.53 221.55 1636.38 221.55 1636.38 249.54 1637.73 249.54 1637.73 223.15 1648.64 249.54 1649.06 249.54 1659.96 223.15 1659.96 249.54 1661.31 249.54 1661.31 221.55 1659.17 221.55"></polygon> <path d="M97.16,64.28c-22.79,0-43.72,10.46-57.92,29.52V0H0V249.26H39.24V224.6c13.82,17.93,34.38,29.14,57.92,29.14,46,0,80-35.12,80-94.55C177.13,100.9,143.5,64.28,97.16,64.28ZM85.58,219c-18.31,0-37.75-10.47-46.34-23.92V123.7C47.83,110.24,67.27,99,85.58,99c31.39,0,51.2,25,51.2,60.16S117,219,85.58,219Z" transform="translate(0 0)"></path> <rect x="217.13" width="39.24" height="249.26"></rect> <path d="M388.66,64.28c-57.18,0-92.69,43-92.69,94.54,0,52,35.51,94.92,92.69,94.92,57.92,0,93-43,93-94.92C481.7,107.25,446.58,64.28,388.66,64.28Zm0,154.71c-33.26,0-52-28-52-60.17,0-31.77,18.69-59.79,52-59.79,33.63,0,52.31,28,52.31,59.79C441,191,422.29,219,388.66,219Z" transform="translate(0 0)"></path> <path d="M605.41,99q26.34,0,41.47,21.3l25.79-23.92c-12.71-17.19-34-32.13-69.14-32.13-54.93,0-93.42,40-93.42,94.54,0,54.94,38.49,94.92,93.42,94.92,35.14,0,56.43-14.94,69.14-32.14l-25.79-23.91C636.79,211.51,623,219,605.41,219c-32.89,0-54.57-25-54.57-60.17S572.52,99,605.41,99Z" transform="translate(0 0)"></path> <polygon points="874.47 68.76 825.89 68.76 746.29 155.83 746.29 0 707.05 0 707.05 249.26 746.29 249.26 746.29 200.68 771.33 174.89 826.64 249.26 875.96 249.26 799.35 150.6 874.47 68.76"></polygon> <path d="M923.8,201.05A26.16,26.16,0,1,0,950,227.21,26.48,26.48,0,0,0,923.8,201.05Z" transform="translate(0 0)"></path> <path d="M1076.65,64.28c-57.18,0-92.68,43-92.68,94.54,0,52,35.5,94.92,92.68,94.92,57.92,0,93-43,93-94.92C1169.7,107.25,1134.57,64.28,1076.65,64.28Zm0,154.71c-33.26,0-52-28-52-60.17,0-31.77,18.69-59.79,52-59.79,33.63,0,52.32,28,52.32,59.79C1129,191,1110.28,219,1076.65,219Z" transform="translate(0 0)"></path> <path d="M1312.08,64.28c-28.4,0-51.57,14.94-63.53,29.15V68.76h-39.24v180.5h39.24V123.32c9-12.33,26.16-24.29,46.34-24.29,22,0,36.25,9.34,36.25,37.37V249.26h39.23V122.2C1370.37,85.2,1350.94,64.28,1312.08,64.28Z" transform="translate(0 0)"></path> <path d="M1501.55,64.28c-53.44,0-91.56,42.22-91.56,94.54,0,57.18,40.36,94.92,94.54,94.92,28.78,0,55.31-9,73.25-26.16l-17.94-25.78c-12.7,12.71-33.63,19.8-51.19,19.8-34,0-54.56-22.41-57.55-49.7h139.39v-9.34C1590.49,105.76,1555.73,64.28,1501.55,64.28Zm-50.83,80c1.87-22,17.2-47.84,50.83-47.84,35.5,0,50.07,26.54,50.82,47.84Z" transform="translate(0 0)"></path> </g> </svg>